<svg width="44" height="45" viewBox="0 0 44 45" fill="none" xmlns="http://www.w3.org/2000/svg">
<path d="M26.886 43H34.1213M42.5625 10.4412V18.8824M8.79779 43H11.2096M6.38603 2H37.739C40.403 2 42.5625 4.15957 42.5625 6.82353V38.1765C42.5625 40.8405 40.403 43 37.739 43H6.38603C3.72207 43 1.5625 40.8405 1.5625 38.1765V6.82353C1.5625 4.15957 3.72207 2 6.38603 2Z" stroke="black" stroke-width="2.5625" stroke-linecap="round"/>
<path d="M25.7972 14.4283L30.1581 18.7415M30.6204 12.9409L31.6216 13.9422C32.5428 14.8633 32.5428 16.3568 31.6216 17.278L18.3702 30.5293C18.1113 30.7883 17.7956 30.9834 17.4482 31.0992L12.5897 32.7187C12.1287 32.8724 11.6901 32.4338 11.8438 31.9728L13.4633 27.1143C13.5791 26.7668 13.7742 26.4512 14.0331 26.1922L27.2845 12.9409C28.2057 12.0197 29.6992 12.0197 30.6204 12.9409Z" stroke="black" stroke-width="2.5625" stroke-linecap="round"/>
</svg>
