<svg width="45" height="45" viewBox="0 0 45 45" fill="none" xmlns="http://www.w3.org/2000/svg">
<path d="M19.9375 22.5V32.75C19.9375 34.1653 21.0847 35.3125 22.5 35.3125C23.9153 35.3125 25.0625 34.1653 25.0625 32.75V22.5C25.0625 21.0847 23.9153 19.9375 22.5 19.9375C21.0847 19.9375 19.9375 21.0847 19.9375 22.5Z" stroke="black" stroke-width="2.5625" stroke-linecap="round"/>
<path d="M25.0625 12.25C25.0625 10.8348 23.9153 9.6875 22.5 9.6875C21.0847 9.6875 19.9375 10.8348 19.9375 12.25C19.9375 13.6652 21.0847 14.8125 22.5 14.8125C23.9153 14.8125 25.0625 13.6652 25.0625 12.25Z" stroke="black" stroke-width="2.5625" stroke-linecap="round"/>
<path d="M27.3235 43H34.5588M43 10.4412V18.8824M9.23529 43H11.6471M6.82353 2H38.1765C40.8405 2 43 4.15957 43 6.82353V38.1765C43 40.8405 40.8405 43 38.1765 43H6.82353C4.15957 43 2 40.8405 2 38.1765V6.82353C2 4.15957 4.15957 2 6.82353 2Z" stroke="black" stroke-width="2.5625" stroke-linecap="round"/>
</svg>
